<?xml version="1.0" encoding="utf-8"?>
<!-- Generator: Adobe Illustrator 16.0.0, SVG Export Plug-In . SVG Version: 6.00 Build 0)  -->
<!DOCTYPE svg PUBLIC "-//W3C//DTD SVG 1.1//EN" "http://www.w3.org/Graphics/SVG/1.1/DTD/svg11.dtd">
<svg version="1.1" id="Layer_1" xmlns="http://www.w3.org/2000/svg" xmlns:xlink="http://www.w3.org/1999/xlink" x="0px" y="0px"
	 width="20px" height="20px" viewBox="0 0 20 20" enable-background="new 0 0 20 20" xml:space="preserve">
<g>
	<path fill="#333333" d="M20,13c0,0.3-0.1,0.6-0.4,0.7l-9.1,6.1C10.3,19.9,10.2,20,10,20s-0.3-0.1-0.5-0.1l-9.1-6.1
		C0.1,13.6,0,13.3,0,13V6.9c0-0.3,0.1-0.6,0.4-0.7l9.1-6.1C9.7,0.1,9.8,0,10,0s0.3,0.1,0.5,0.1l9.1,6.1C19.8,6.4,20,6.7,20,6.9V13z
		 M3.9,10L1.7,8.6v2.9L3.9,10z M9.1,6.5v-4L2.4,6.9l3,2L9.1,6.5z M9.1,17.5v-4L5.4,11l-3,2L9.1,17.5z M13,10l-3-2l-3,2l3,2L13,10z
		 M17.6,6.9l-6.7-4.5v4L14.6,9L17.6,6.9z M17.6,13l-3-2l-3.7,2.5v4L17.6,13z M18.3,11.4V8.6L16.1,10L18.3,11.4z"/>
</g>
<g>
</g>
<g>
</g>
<g>
</g>
<g>
</g>
<g>
</g>
<g>
</g>
<g>
</g>
<g>
</g>
<g>
</g>
<g>
</g>
<g>
</g>
<g>
</g>
<g>
</g>
<g>
</g>
<g>
</g>
</svg>
