<?xml version="1.0" encoding="utf-8"?>
<!-- Generator: Adobe Illustrator 16.0.0, SVG Export Plug-In . SVG Version: 6.00 Build 0)  -->
<!DOCTYPE svg PUBLIC "-//W3C//DTD SVG 1.1//EN" "http://www.w3.org/Graphics/SVG/1.1/DTD/svg11.dtd">
<svg version="1.1" id="Layer_1" xmlns="http://www.w3.org/2000/svg" xmlns:xlink="http://www.w3.org/1999/xlink" x="0px" y="0px"
	 width="20.4px" height="15.3px" viewBox="0 0 20.4 15.3" enable-background="new 0 0 20.4 15.3" xml:space="preserve">
<g>
	<path fill="#333333" d="M5.8,13.1c-0.1,0.1-0.4,0.1-0.5,0L0.1,7.9C0,7.8,0,7.5,0.1,7.4l5.2-5.2c0.1-0.1,0.4-0.1,0.5,0l0.6,0.6
		c0.1,0.1,0.1,0.4,0,0.5L2,7.7L6.4,12c0.1,0.1,0.1,0.4,0,0.5L5.8,13.1z M8.8,15c-0.1,0.2-0.3,0.3-0.4,0.2l-0.7-0.2
		c-0.2-0.1-0.3-0.3-0.2-0.4l4.2-14.4C11.7,0.1,11.9,0,12,0l0.7,0.2C12.9,0.3,13,0.5,13,0.6L8.8,15z M15.1,13.1
		c-0.1,0.1-0.4,0.1-0.5,0L14,12.6c-0.1-0.1-0.1-0.4,0-0.5l4.4-4.4L14,3.3c-0.1-0.1-0.1-0.4,0-0.5l0.6-0.6c0.1-0.1,0.4-0.1,0.5,0
		l5.2,5.2c0.1,0.1,0.1,0.4,0,0.5L15.1,13.1z"/>
</g>
<g>
</g>
<g>
</g>
<g>
</g>
<g>
</g>
<g>
</g>
<g>
</g>
<g>
</g>
<g>
</g>
<g>
</g>
<g>
</g>
<g>
</g>
<g>
</g>
<g>
</g>
<g>
</g>
<g>
</g>
</svg>
