<?xml version="1.0" encoding="utf-8"?>
<!-- Generator: Adobe Illustrator 16.0.0, SVG Export Plug-In . SVG Version: 6.00 Build 0)  -->
<!DOCTYPE svg PUBLIC "-//W3C//DTD SVG 1.1//EN" "http://www.w3.org/Graphics/SVG/1.1/DTD/svg11.dtd">
<svg version="1.1" id="Layer_1" xmlns="http://www.w3.org/2000/svg" xmlns:xlink="http://www.w3.org/1999/xlink" x="0px" y="0px"
	 width="18.6px" height="15.7px" viewBox="0 0 18.6 15.7" enable-background="new 0 0 18.6 15.7" xml:space="preserve">
<g>
	<path fill="#333333" d="M17.9,12.4c-1.5,3-5.5,3.3-8.4,3.3c-2.9,0-7.2-0.3-8.8-3.3C0.1,11.3,0,10,0,8.7c0-1.6,0.4-3.2,1.5-4.4
		C1.3,3.7,1.2,3.1,1.2,2.4c0-0.8,0.2-1.7,0.6-2.4C3.5,0,4.7,0.8,6,1.8c1.1-0.3,2.3-0.4,3.4-0.4c1,0,2.1,0.1,3.1,0.4
		C13.9,0.7,15,0,16.8,0c0.4,0.8,0.6,1.6,0.6,2.4c0,0.6-0.1,1.3-0.3,1.9c1.1,1.3,1.5,2.8,1.5,4.4C18.6,10,18.4,11.3,17.9,12.4z
		 M13.2,7.5c-0.7,0-1.4,0.1-2.2,0.2c-0.6,0.1-1.2,0.1-1.8,0.1s-1.2,0-1.8-0.1C6.8,7.6,6.1,7.5,5.4,7.5c-1.8,0-2.9,1.5-2.9,3.2
		c0,3.4,3.1,3.9,5.8,3.9h1.9c2.7,0,5.8-0.5,5.8-3.9C16.1,9,15,7.5,13.2,7.5z M5.7,12.8c-1,0-1.4-1.3-1.4-2.1s0.4-2.1,1.4-2.1
		s1.4,1.3,1.4,2.1S6.7,12.8,5.7,12.8z M12.8,12.8c-1,0-1.4-1.3-1.4-2.1s0.4-2.1,1.4-2.1s1.4,1.3,1.4,2.1S13.9,12.8,12.8,12.8z"/>
</g>
<g>
</g>
<g>
</g>
<g>
</g>
<g>
</g>
<g>
</g>
<g>
</g>
<g>
</g>
<g>
</g>
<g>
</g>
<g>
</g>
<g>
</g>
<g>
</g>
<g>
</g>
<g>
</g>
<g>
</g>
</svg>
